<svg xmlns="http://www.w3.org/2000/svg" xmlns:xlink="http://www.w3.org/1999/xlink" width="2048" zoomAndPan="magnify" viewBox="0 0 1536 1535.999932" height="2048" preserveAspectRatio="xMidYMid meet" version="1.2"><g id="576e1a78d0"><path style=" stroke:none;fill-rule:nonzero;fill:#ffffff;fill-opacity:1;" d="M 120.667969 1334.664062 C 185.785156 1452.300781 326.390625 1407.613281 372.703125 1326.023438 C 399.953125 1278.011719 415.960938 1226.75 419.488281 1173.007812 C 425.125 1087.09375 427.277344 1000.863281 425.34375 914.660156 C 425.125 904.894531 425.992188 894.703125 415.285156 885.382812 C 369.316406 900.027344 326.226562 923.695312 285.222656 950.570312 C 188.601562 1013.898438 111.433594 1094.632812 66.546875 1203.101562 C 62.6875 1212.425781 60.546875 1225.320312 44.40625 1218.851562 C 27.925781 1212.242188 30.109375 1200.800781 34.980469 1187.933594 C 66.132812 1105.65625 116.460938 1036.367188 180.558594 977.128906 C 245.675781 916.9375 319.382812 869.132812 401.144531 834.664062 C 420.105469 826.671875 425.816406 816.035156 425.734375 796.28125 C 425.023438 630.210938 425.367188 464.136719 425.101562 298.0625 C 425.078125 281.957031 423.339844 265.835938 421.996094 249.753906 C 417.703125 198.332031 405.808594 185.046875 355.183594 174.796875 C 350.800781 173.910156 346.316406 173.433594 341.851562 173.042969 C 330.371094 172.042969 323.316406 167.070312 324.027344 154.371094 C 324.847656 139.699219 334.964844 141 345.292969 141.082031 C 428.757812 141.730469 512.222656 142.15625 595.691406 142.523438 C 604.652344 142.5625 613.636719 142.007812 622.574219 141.285156 C 633.546875 140.402344 639.472656 144.3125 639.863281 156.125 C 640.230469 167.335938 635.554688 172.136719 624.421875 173.386719 C 559.25 180.703125 541.664062 195.1875 541.75 272.828125 C 541.9375 433.515625 541.832031 594.203125 542.03125 754.890625 C 542.042969 763.546875 539.644531 772.964844 547.714844 781.816406 C 583.019531 777.125 619.164062 772.070312 655.371094 767.558594 C 763.066406 754.144531 868.273438 769.890625 972.289062 796.242188 C 1057.417969 817.8125 1141.433594 844.417969 1229.628906 851.433594 C 1303.34375 857.296875 1376.699219 858.847656 1446.863281 829.25 C 1453.207031 826.574219 1460.253906 821.328125 1466.8125 827.574219 C 1473.523438 833.964844 1471.953125 842.375 1469.246094 850.300781 C 1457.519531 884.660156 1430.886719 903.636719 1399.070312 916.242188 C 1337.375 940.691406 1273.019531 942.265625 1208.207031 935.289062 C 1098.578125 923.488281 996.335938 881.882812 890.398438 855.148438 C 783.859375 828.265625 676.757812 819.53125 567.933594 840.300781 C 547.910156 844.121094 541.320312 852.625 541.308594 872.414062 C 541.269531 949.546875 544.324219 1026.734375 536.976562 1103.78125 C 526.179688 1216.980469 491.390625 1319.050781 394.605469 1387.664062 C 301.566406 1453.617188 197.644531 1470.09375 87.179688 1440.71875 C 74.378906 1437.316406 61.78125 1431.308594 50.550781 1424.203125 C 16.351562 1402.566406 9.773438 1359.230469 35.054688 1328.460938 C 56.207031 1302.722656 88.433594 1304.496094 120.667969 1334.664062 Z M 120.667969 1334.664062 "/><path style=" stroke:none;fill-rule:nonzero;fill:#ffffff;fill-opacity:1;" d="M 1158.535156 405.246094 C 1217.480469 544.625 1275.570312 682.132812 1334.945312 822.683594 C 1271.050781 829.101562 1213.511719 822.566406 1156.359375 811.386719 C 1067.542969 794.007812 982.128906 762.214844 892.691406 747.742188 C 846.949219 740.339844 800.601562 736.707031 754.867188 731.414062 C 750.15625 718.4375 757.757812 709.316406 761.644531 699.867188 C 818.570312 561.402344 876.023438 423.15625 932.96875 284.703125 C 959.546875 220.074219 949.347656 200.429688 881.808594 184.210938 C 872.613281 182.003906 863.410156 180.464844 863.578125 168.644531 C 863.773438 154.898438 874.335938 154.695312 884.527344 153.492188 C 927.265625 148.441406 970.203125 143.347656 1010.476562 127.363281 C 1031.886719 118.867188 1040.746094 126.625 1048.699219 145.785156 C 1084.425781 231.898438 1121.25 317.558594 1158.535156 405.246094 M 966.1875 330.574219 C 918.484375 449.96875 870.78125 569.359375 820.261719 695.800781 C 947.320312 697.433594 1057.183594 754.4375 1183.539062 775.371094 C 1115.363281 612.078125 1050.371094 456.414062 982.617188 294.136719 C 975.035156 310.796875 971.359375 318.878906 966.1875 330.574219 Z M 966.1875 330.574219 "/><path style=" stroke:none;fill-rule:nonzero;fill:#ffffff;fill-opacity:1;" d="M 1318.3125 1105.734375 C 1282.847656 1110.363281 1249.691406 1110.03125 1216.570312 1110.410156 C 1205.257812 1110.542969 1194.1875 1110.121094 1193.757812 1094.734375 C 1193.371094 1080.8125 1202.398438 1076.914062 1214.320312 1075.042969 C 1225.734375 1073.253906 1237.382812 1071.148438 1248.085938 1067.003906 C 1274.621094 1056.730469 1283.839844 1037.15625 1278.226562 1009.203125 C 1275.800781 997.113281 1267.914062 986.234375 1270.082031 971.359375 C 1306.578125 965.582031 1343.253906 959.773438 1379.933594 953.976562 C 1390.59375 952.292969 1393.539062 960.585938 1397.222656 967.636719 C 1406.332031 985.089844 1414.582031 1003.03125 1424.433594 1020.050781 C 1440.871094 1048.449219 1464.367188 1068.1875 1497.609375 1073.914062 C 1510.605469 1076.152344 1523.621094 1077.8125 1521.671875 1095.636719 C 1519.566406 1114.871094 1504.058594 1110.640625 1492.570312 1110.09375 C 1435.351562 1107.382812 1378.183594 1103.449219 1318.3125 1105.734375 Z M 1318.3125 1105.734375 "/><path style=" stroke:none;fill-rule:nonzero;fill:#ffffff;fill-opacity:1;" d="M 740.585938 882.351562 C 727.171875 917.902344 713.160156 951.03125 702.21875 985.148438 C 684.886719 1039.199219 704.078125 1067.699219 760.234375 1075.082031 C 772.304688 1076.667969 787.5 1074.882812 786.050781 1094.242188 C 784.640625 1113.027344 770.035156 1111.027344 757.804688 1110.09375 C 699.582031 1105.65625 641.316406 1104.386719 582.960938 1105.742188 C 578.773438 1105.839844 574.535156 1103.839844 569.628906 1102.648438 C 567.457031 1081.167969 571.066406 1064.664062 589.996094 1050.96875 C 616.011719 1032.148438 631.25 1003.925781 644.222656 975.070312 C 658.566406 943.15625 671.886719 910.785156 685.832031 878.691406 C 693.582031 860.855469 723.890625 851.085938 739.5625 861.242188 C 748.046875 866.746094 743.371094 873.746094 740.585938 882.351562 Z M 740.585938 882.351562 "/></g></svg>